<?xml version="1.0" standalone="no"?>
<!DOCTYPE svg PUBLIC "-//W3C//DTD SVG 20010904//EN"
 "http://www.w3.org/TR/2001/REC-SVG-20010904/DTD/svg10.dtd">
<svg version="1.0" xmlns="http://www.w3.org/2000/svg"
 width="512.000000pt" height="512.000000pt" viewBox="0 0 512.000000 512.000000"
 preserveAspectRatio="xMidYMid meet">
<metadata>
Created by potrace 1.14, written by Peter Selinger 2001-2017
</metadata>
<g transform="translate(0.000000,512.000000) scale(0.100000,-0.100000)"
fill="#000000" stroke="none">
<path d="M0 4051 c1 -291 10 -351 63 -440 68 -115 178 -189 342 -232 112 -29
334 -33 460 -8 259 52 408 189 441 404 5 38 10 458 5 523 -1 9 -42 12 -171 12
-169 0 -170 0 -171 -22 0 -13 -1 -119 -1 -235 0 -259 -6 -292 -62 -347 -49
-49 -99 -66 -210 -72 -175 -8 -283 32 -326 122 -23 46 -23 57 -24 301 l0 253
-173 0 -174 0 1 -259z"/>
<path d="M1448 4303 c-3 -7 -2 -901 1 -941 1 -10 37 -12 163 -10 l163 3 1 275
c1 151 2 279 3 283 0 4 43 -27 94 -70 50 -44 203 -172 339 -286 l247 -207 154
0 c115 0 156 3 159 13 2 6 4 221 4 477 l-1 465 -165 0 -164 0 0 -282 c1 -156
0 -283 -2 -283 -1 0 -9 6 -16 13 -7 6 -38 32 -68 57 -30 24 -64 52 -75 62 -86
73 -196 165 -346 291 l-176 147 -156 0 c-86 0 -157 -3 -159 -7z"/>
<path d="M524 3035 c-252 -40 -413 -136 -486 -292 -29 -60 -33 -79 -34 -162
-2 -77 2 -107 21 -158 54 -150 182 -248 391 -300 99 -25 127 -27 299 -28 105
0 215 4 245 8 76 12 199 52 254 83 96 54 184 165 189 240 l2 28 -170 32 c-93
17 -173 29 -177 27 -5 -2 -8 -13 -8 -23 0 -32 -49 -78 -108 -101 -50 -19 -77
-22 -212 -23 -137 -1 -163 2 -227 23 -90 29 -138 76 -148 143 -24 162 93 240
360 241 115 1 145 -2 210 -19 58 -14 111 -58 122 -102 6 -25 19 -26 108 -8 11
2 75 14 141 26 l122 22 -8 28 c-27 95 -105 184 -205 237 -59 31 -169 65 -250
78 -82 13 -351 13 -431 0z"/>
<path d="M2041 3034 c-119 -17 -187 -36 -278 -80 -165 -79 -259 -230 -252
-406 12 -304 311 -474 798 -455 155 6 176 9 284 37 163 41 299 135 352 244 33
67 37 84 42 181 8 129 -40 243 -138 329 -75 66 -237 130 -379 151 -85 13 -335
12 -429 -1z m402 -274 c116 -24 180 -79 192 -165 24 -156 -102 -232 -384 -233
-274 0 -397 70 -385 220 6 80 37 121 119 157 79 35 335 47 458 21z"/>
<path d="M3120 2568 l0 -478 170 0 170 0 -1 241 c0 133 1 243 3 244 2 2 75
-106 163 -240 l160 -245 136 0 136 0 153 238 c84 130 158 242 164 249 8 9 11
-52 11 -237 l-1 -250 168 0 168 0 1 68 c0 37 0 252 0 477 l1 410 -167 2 -167
1 -56 -78 c-31 -43 -74 -102 -95 -131 -21 -30 -91 -129 -157 -221 -159 -226
-159 -226 -170 -208 -4 8 -109 156 -231 327 l-223 313 -168 -2 -168 -1 0 -479z"/>
<path d="M4 1303 l1 -478 167 -3 168 -2 2 247 3 247 161 -246 161 -245 136 0
136 0 79 121 c43 67 116 178 161 249 46 70 84 127 86 127 1 0 3 -105 3 -232 0
-128 0 -241 1 -250 1 -16 16 -18 165 -18 122 0 165 3 168 13 3 10 2 849 -1
925 l-1 22 -167 -2 -168 -3 -226 -318 c-125 -175 -230 -318 -234 -318 -4 0
-85 109 -180 243 -96 134 -177 248 -182 253 -5 6 -30 40 -56 78 l-48 67 -168
0 -168 0 1 -477z"/>
<path d="M2359 1776 c-2 -2 -31 -6 -64 -9 -33 -4 -75 -11 -92 -16 -18 -5 -33
-8 -33 -6 0 2 -25 -5 -57 -16 -243 -86 -354 -227 -349 -444 2 -78 6 -100 34
-158 91 -195 313 -296 667 -302 83 -2 175 0 205 5 30 4 75 11 99 15 76 11 193
53 256 90 146 86 220 218 214 385 -10 289 -271 454 -724 458 -84 1 -154 0
-156 -2z m321 -282 c167 -31 235 -117 199 -252 -20 -74 -94 -119 -229 -140
-62 -9 -254 -8 -315 2 -71 11 -154 47 -180 78 -58 69 -53 192 11 250 28 25
110 58 162 64 26 3 48 7 50 9 9 9 242 1 302 -11z"/>
<path d="M3394 1303 l1 -478 163 -3 162 -2 1 27 c0 16 0 144 0 286 0 239 2
257 17 245 39 -31 118 -96 237 -197 11 -9 103 -86 205 -171 102 -85 194 -162
204 -172 17 -16 40 -18 178 -18 144 0 158 2 159 18 0 23 0 913 0 930 -1 9 -41
12 -164 12 l-164 0 0 -280 c0 -154 -2 -282 -4 -285 -3 -2 -18 8 -34 23 -25 22
-144 123 -250 210 -72 60 -271 227 -275 232 -3 3 -31 27 -63 53 l-59 47 -157
0 -158 0 1 -477z"/>
<path d="M4883 1066 c-17 -8 -40 -27 -49 -42 -24 -35 -24 -113 0 -148 51 -79
231 -73 270 9 29 61 12 144 -36 174 -33 20 -146 25 -185 7z m175 -33 c44 -33
52 -115 15 -155 -32 -35 -137 -45 -188 -18 -48 25 -62 104 -29 154 30 46 150
58 202 19z"/>
<path d="M4923 993 c-8 -3 -13 -22 -13 -47 0 -33 4 -43 16 -43 9 0 19 9 22 19
2 10 10 18 17 18 7 0 15 -8 17 -18 3 -10 12 -19 21 -19 11 0 15 11 15 44 0 25
-4 43 -11 44 -48 5 -74 5 -84 2z m48 -26 c-1 -12 -15 -9 -19 4 -3 6 1 10 8 8
6 -3 11 -8 11 -12z"/>
</g>
</svg>
